<svg width="32" height="37" viewBox="0 0 32 37" fill="none" xmlns="http://www.w3.org/2000/svg">
<path fill-rule="evenodd" clip-rule="evenodd" d="M24.2644 32.5032C24.1165 29.2801 24.3975 26.2873 25.1781 22.5387C25.4949 21.6296 25.6875 20.8267 25.8009 20.2278C26.556 16.2567 25.8432 12.4102 25.3124 10.3599C28.3727 13.033 30.1555 16.8979 30.1555 21.0193C30.1555 25.7427 27.8294 29.9297 24.2644 32.5032ZM15.7269 30.2614C14.9992 30.5065 14.2543 30.7267 13.5135 30.9152C11.3269 31.47 9.08431 31.7664 6.84346 31.8034C3.78789 29.2049 1.8441 25.3358 1.8441 21.0193C1.8441 16.8973 3.62809 13.033 6.68781 10.3599C6.15635 12.4102 5.44365 16.2567 6.1993 20.2278C6.27211 20.6131 6.60907 20.8816 6.98781 20.8816C7.03674 20.8816 7.08799 20.8774 7.13814 20.8673C7.57412 20.7843 7.86043 20.3637 7.77748 19.9271C7.67253 19.3753 7.60032 18.8235 7.55323 18.2789L12.1798 20.112C12.5121 21.5461 13.6006 23.6369 15.9995 23.6369C18.3996 23.6369 19.4881 21.5467 19.8209 20.1126L24.4469 18.2789C24.3991 18.8247 24.327 19.3753 24.2226 19.9271C23.7848 22.2297 22.0808 27.8442 15.7269 30.2614ZM22.7118 33.4809C21.7581 33.9968 20.7388 34.4043 19.6705 34.6912C18.8874 33.2196 17.9372 32.1702 16.8327 31.5481C19.5697 30.395 21.4897 28.7051 22.8364 26.9381C22.5937 29.1638 22.5591 31.2511 22.7118 33.4809ZM15.9994 35.1768C13.4442 35.1768 11.0472 34.492 8.9745 33.3025C10.607 33.1629 12.2305 32.8933 13.826 32.493C15.5754 32.3593 16.9227 33.1731 18.0196 35.0306C17.3599 35.1249 16.6859 35.1768 15.9994 35.1768ZM8.65073 8.84651L8.65427 8.84235C8.60833 8.71589 8.56777 8.58826 8.52843 8.4624L8.48372 8.31742C7.47633 5.15399 7.99105 2.94746 8.34713 1.97811C9.72549 2.58473 11.4814 4.68576 12.7327 6.70797C12.9063 6.98718 13.2308 7.13387 13.5541 7.07601C15.1919 6.79149 16.8094 6.79149 18.4455 7.07601C18.7717 7.13387 19.095 6.98657 19.2668 6.70797C20.5187 4.68576 22.2746 2.58595 23.6536 1.97811C24.0097 2.95045 24.522 5.15638 23.517 8.31742V8.31919L23.4735 8.4558C23.4329 8.58343 23.393 8.7135 23.3459 8.84297L23.3489 8.84773C23.2886 9.01654 23.2809 9.20685 23.3471 9.38996C23.3614 9.42991 24.4952 12.622 24.5173 16.5215L18.8171 18.7811L18.8177 18.7841C18.5558 18.8891 18.3554 19.126 18.3166 19.4254C18.3131 19.4517 17.9582 22.0298 15.9995 22.0298C14.0599 22.0298 13.6972 19.5292 13.6835 19.4254C13.6441 19.126 13.4443 18.8879 13.1825 18.7835V18.7811L7.48226 16.5215C7.50492 12.622 8.63876 9.42991 8.65311 9.38996C8.71927 9.20685 8.71151 9.01654 8.65073 8.84651ZM25.2187 8.23208C26.5016 3.5792 24.8668 0.733173 24.7934 0.610248C24.63 0.334094 24.3145 0.182577 24.0002 0.221922C21.6639 0.521353 19.3229 3.66089 18.1879 5.40933C16.7218 5.20356 15.2784 5.20356 13.8117 5.40933C12.6767 3.66089 10.3363 0.521353 8.0006 0.221922C7.68209 0.181355 7.37018 0.334094 7.20677 0.610248C7.13335 0.733173 5.49854 3.5792 6.78148 8.23208C2.6726 11.1975 0.237305 15.934 0.237305 21.0193C0.237305 29.712 7.30811 36.7845 15.9995 36.7845C24.692 36.7845 31.7623 29.712 31.7623 21.0193C31.7623 15.934 29.3276 11.1975 25.2187 8.23208Z" fill="black"/>
<path fill-rule="evenodd" clip-rule="evenodd" d="M15.9999 20.9505C16.6219 20.9505 17.1258 20.4441 17.1258 19.8189C17.1258 19.1949 16.6219 18.6885 15.9999 18.6885C15.3785 18.6885 14.874 19.1949 14.874 19.8189C14.874 20.4441 15.3785 20.9505 15.9999 20.9505Z" fill="black"/>
<path fill-rule="evenodd" clip-rule="evenodd" d="M12.622 15.2954C13.244 15.2954 13.7479 14.7891 13.7479 14.1638C13.7479 13.5399 13.244 13.0334 12.622 13.0334C12 13.0334 11.4961 13.5399 11.4961 14.1638C11.4961 14.7891 12 15.2954 12.622 15.2954Z" fill="black"/>
<path fill-rule="evenodd" clip-rule="evenodd" d="M19.3782 15.2954C19.9998 15.2954 20.5037 14.7891 20.5037 14.1638C20.5037 13.5399 19.9998 13.0334 19.3782 13.0334C18.756 13.0334 18.252 13.5399 18.252 14.1638C18.252 14.7891 18.756 15.2954 19.3782 15.2954Z" fill="black"/>
<path fill-rule="evenodd" clip-rule="evenodd" d="M13.0446 28.5659C11.0202 27.1052 9.44946 25.0365 8.50195 22.5837C8.34471 22.1773 7.89092 21.978 7.48884 22.1351C7.08729 22.2945 6.88886 22.7525 7.0461 23.1589C8.10391 25.8973 9.86432 28.2123 12.136 29.8524C12.2735 29.951 12.4325 29.9984 12.5903 29.9984C12.834 29.9984 13.0742 29.8841 13.2262 29.6677C13.478 29.313 13.3957 28.8192 13.0446 28.5659Z" fill="black"/>
</svg>
